<svg xmlns="http://www.w3.org/2000/svg" class="iconLeft" viewBox="0 0 300 300"><rect width="300" height="300" x="0" y="0" fill="#222327" class="logo-background-square"/><g id="e3939755-62cf-46ec-af10-ecd7f8b7654d" fill="#FFF"><path d="M5.94 4.40C5.25 3.75 4.37 3.47 3.36 3.47C1.96 3.46 0.60 4.05 0.62 5.40C0.63 6.79 1.96 7.04 3.30 7.27C4.44 7.45 5.59 7.64 5.56 8.64C5.52 9.73 4.24 9.95 3.40 9.95C2.48 9.95 1.44 9.60 0.87 8.78L0.36 9.23C0.97 10.15 2.17 10.61 3.39 10.61C4.61 10.61 6.19 10.21 6.23 8.68C6.30 7.07 4.61 6.86 3.37 6.65C2.51 6.50 1.30 6.31 1.27 5.39C1.25 4.51 2.28 4.10 3.36 4.12C4.13 4.12 4.82 4.23 5.52 4.84ZM8.67 1.57L8.67 3.58L7.20 3.58L7.20 4.16L8.67 4.16L8.67 8.37C8.67 9.73 9.14 10.60 10.61 10.60C11.05 10.60 11.48 10.46 11.91 10.25L11.68 9.69C11.33 9.86 10.95 9.97 10.61 9.97C9.53 9.97 9.34 9.31 9.34 8.37L9.34 4.16L11.69 4.16L11.69 3.58L9.34 3.58L9.34 1.50ZM16.46 10.60C18.41 10.60 19.98 9.25 19.98 7.06C19.98 4.86 18.41 3.46 16.46 3.46C14.52 3.46 12.95 4.86 12.95 7.06C12.95 9.25 14.52 10.60 16.46 10.60ZM16.46 9.93C14.90 9.93 13.62 8.85 13.62 7.06C13.62 5.26 14.90 4.10 16.46 4.10C18.03 4.10 19.31 5.26 19.31 7.06C19.31 8.85 18.03 9.93 16.46 9.93ZM21.56 3.58L21.56 10.50L22.25 10.50L22.25 6.47C22.25 5.21 23.24 4.17 24.53 4.16C24.93 4.16 25.34 4.26 25.70 4.48L26.01 3.92C25.55 3.64 25.05 3.50 24.53 3.51C23.65 3.51 22.67 3.88 22.23 4.82L22.20 3.58ZM32.65 3.58L30.91 7.66L30.11 9.67L29.30 7.67L27.69 3.58L26.95 3.58L29.72 10.42L28.45 13.38L29.18 13.38L33.39 3.58ZM39.89 4.40C39.20 3.75 38.32 3.47 37.31 3.47C35.91 3.46 34.55 4.05 34.57 5.40C34.58 6.79 35.91 7.04 37.25 7.27C38.39 7.45 39.54 7.64 39.51 8.64C39.47 9.73 38.19 9.95 37.35 9.95C36.43 9.95 35.39 9.60 34.82 8.78L34.31 9.23C34.92 10.15 36.12 10.61 37.34 10.61C38.56 10.61 40.14 10.21 40.18 8.68C40.25 7.07 38.56 6.86 37.32 6.65C36.46 6.50 35.25 6.31 35.22 5.39C35.20 4.51 36.23 4.10 37.31 4.12C38.08 4.12 38.77 4.23 39.47 4.84ZM44.83 10.60C45.93 10.60 47.14 10.15 47.81 9.27L47.32 8.88C46.80 9.56 45.74 9.93 44.83 9.93C43.40 9.93 42.15 8.99 42.01 7.36L48.24 7.36C48.51 4.66 46.77 3.47 44.83 3.47C42.88 3.47 41.31 4.97 41.31 7.04C41.31 9.24 42.88 10.60 44.83 10.60ZM42.01 6.76C42.17 5.07 43.40 4.10 44.83 4.10C46.49 4.10 47.61 5.05 47.63 6.76ZM55.99 3.58L55.99 5.10C55.41 4.02 54.28 3.50 53.16 3.50C51.23 3.50 49.64 4.93 49.64 7.04C49.64 9.16 51.23 10.61 53.16 10.61C54.28 10.61 55.31 10.11 55.99 9.03L55.99 10.50L56.67 10.50C56.67 8.19 56.67 5.89 56.67 3.58ZM53.16 4.16C57.01 4.16 57.01 9.94 53.16 9.94C51.59 9.94 50.33 8.78 50.33 7.04C50.33 5.31 51.59 4.16 53.16 4.16Z" transform="matrix(2.6283591213922612,0,0,2.6283591213922612,111.05089496999396,130.44500798644566)"/></g><g id="ba16a619-b42b-44e8-b596-964d8ed39b5c" fill="#FFBFA6" stroke="none"><path d="M78.55 33.34h-5.48v-5.48a2.61 2.61 0 0 0-2.61-2.6H39.84a2.61 2.61 0 0 0-2.61 2.6v10.49l-7.45-7.45-2.67-2.68a1 1 0 0 0-.71-.29 1 1 0 0 0-.71.29l-6.56 6.55a1 1 0 0 0 0 1.42l2.68 2.68 15.42 15.4v9.78a2.61 2.61 0 0 0 2.61 2.6h5.48v5.49a2.61 2.61 0 0 0 2.61 2.6h30.62a2.61 2.61 0 0 0 2.61-2.6v-36.2a2.61 2.61 0 0 0-2.61-2.6zm-41 8.13l5.86 5.86-1.86 1.86L34.37 42l-7.16-7.16L29.07 33zm6.73 7.81l1.36 5.4-5.44-1.34 1-1 1-1 .91-.91zm-23-13.81l5.14-5.13 1.26 1.26-2.57 2.57-2.57 2.57zm2.68 2.68l1.86-1.86L33 43.45l7.16 7.16-1.86 1.86zm15.88 26.51a.61.61 0 0 1-.61-.6v-8.9L46.75 57h17.41a1 1 0 0 0 0-2H47.77l-2-8v-.08-.05l-.05-.1a1 1 0 0 0 .5.15h18a1 1 0 0 0 0-2h-18a1 1 0 0 0-.92 1.38l-6-6V27.86a.6.6 0 0 1 .61-.6h30.55a.6.6 0 0 1 .61.6v36.2a.61.61 0 0 1-.61.6H39.84zm39.32 7.49a.61.61 0 0 1-.61.6H47.93a.61.61 0 0 1-.61-.6v-5.49h23.14a2.61 2.61 0 0 0 2.61-2.6V35.34h5.48a.6.6 0 0 1 .61.6z" transform="matrix(0.9465919818229345,0,0,0.9465919818229345,22.171695580021417,102.67040632529604)"/><path d="M64.16 34.85h-18a1 1 0 0 0 0 2h18a1 1 0 0 0 0-2z" transform="matrix(0.9465919818229345,0,0,0.9465919818229345,22.171695580021417,102.67040632529604)"/></g></svg>